<svg width="61" height="53" viewBox="0 0 61 53" fill="none" xmlns="http://www.w3.org/2000/svg">
<path d="M48.7132 8.90683C50.2116 8.90683 51.5682 8.89363 52.9247 8.90683C56.3759 8.94863 58.8362 10.6801 59.6143 13.8087C59.9091 14.9902 59.8802 16.2663 59.8758 17.4983C59.8758 18.198 59.4436 18.8184 58.6434 18.7568C57.8432 18.6952 57.8166 17.9868 57.7878 17.3399C57.7368 16.1782 57.7745 14.9902 57.5396 13.8593C57.2159 12.3016 55.855 11.316 54.2502 11.316C38.1078 11.3072 21.9646 11.3072 5.82068 11.316C4.9084 11.3218 4.03534 11.685 3.3915 12.3265C2.74765 12.968 2.38512 13.836 2.3828 14.7416C2.37098 25.4092 2.37098 36.0791 2.3828 46.7512C2.3828 48.7313 3.91001 50.2098 5.98249 50.2538C7.23706 50.2802 8.49385 50.2538 9.75063 50.2538H53.6406C56.3338 50.2538 57.8011 48.8347 57.8521 46.1814C57.872 45.2661 57.8521 44.3377 57.9629 43.4466C58.0582 42.9846 58.3087 42.2168 59.0136 42.2168C59.7184 42.2168 60.0975 42.9758 60.1329 43.396C60.3546 46.0538 60.2925 48.6895 58.1114 50.7026C56.9033 51.8446 55.2932 52.4723 53.6251 52.4517C38.1824 52.4517 22.7396 52.3857 7.29912 52.4979C3.4268 52.5309 -0.035457 50.069 0.02439 45.3057C0.0997528 39.2576 0.0421224 33.205 0.0421224 27.1569C0.0421224 23.6719 0.1596 20.1847 0.0110907 16.7063C-0.166234 12.5744 1.77325 9.83528 6.5189 8.86283C15.3829 7.04332 24.1959 4.9906 33.0267 3.03249C36.6973 2.21844 40.3613 1.38239 44.0341 0.581548C46.2684 0.0909199 48.6467 1.93243 48.7044 4.20736C48.7443 5.70784 48.7132 7.21053 48.7132 8.90683ZM18.5947 8.4228L18.6745 8.81222H46.7095C46.7095 7.33154 46.7206 5.90806 46.7095 4.48457C46.694 3.12049 45.8893 2.51546 44.5395 2.80368C36.6973 4.46991 28.8551 6.13833 21.0129 7.80896C20.2017 7.98277 19.3993 8.20279 18.5947 8.4228Z" fill="white"/>
</svg>
